<?xml version="1.0" encoding="UTF-8"?>
<svg width="700pt" height="700pt" version="1.1" viewBox="0 0 700 700" xmlns="http://www.w3.org/2000/svg">
 <path d="m345.7 385h8.6094c55.371 0 100.7-45.324 100.7-100.7v-148.61c0-55.371-45.324-100.7-100.7-100.7h-8.6094c-55.371 0-100.7 45.324-100.7 100.7v148.61c0 55.371 45.324 100.7 100.7 100.7zm-65.695-249.3c0-36.227 29.469-65.695 65.695-65.695h8.6094c36.227 0 65.695 29.469 65.695 65.695v148.61c0 36.227-29.469 65.695-65.695 65.695h-8.6094c-36.227 0-65.695-29.469-65.695-65.695zm192.5 354.3h-87.5v-38.148c70-14.664 140.35-82.32 140.35-171.85 0-9.6602-8.0156-17.5-17.676-17.5-9.6602 0-17.57 7.8398-17.57 17.5 0 82.426-57.609 140-140.04 140-82.426 0-140.04-57.574-140.04-140 0-9.6602-7.8398-17.5-17.5-17.5s-17.887 7.8398-17.887 17.5c0 89.531 70.352 157.22 140.35 171.85v38.148h-87.5c-9.6602 0-17.5 7.8398-17.5 17.5s7.8398 17.5 17.5 17.5h245c9.6602 0 17.5-7.8398 17.5-17.5s-7.8398-17.5-17.5-17.5z"/>
</svg>
